<svg xmlns="http://www.w3.org/2000/svg" xmlns:xlink="http://www.w3.org/1999/xlink" width="23" height="24" viewBox="0 0 23 24">
  <defs>
    <clipPath id="clip-path">
      <rect id="Rectangle_18215" data-name="Rectangle 18215" width="23" height="24" transform="translate(291 89)" fill="#fff"/>
    </clipPath>
  </defs>
  <g id="leaderboard" transform="translate(-291 -89)" clip-path="url(#clip-path)">
    <g id="podium" transform="translate(291 89.5)">
      <path id="Path_10254" data-name="Path 10254" d="M8.566,13.589V22.4H1.491A1.493,1.493,0,0,1,0,20.9V15.081a1.493,1.493,0,0,1,1.491-1.491Z" fill="#64a3ff"/>
      <path id="Path_10255" data-name="Path 10255" d="M23,17.769V20.9A1.493,1.493,0,0,1,21.509,22.4H14.434V16.278h7.075A1.492,1.492,0,0,1,23,17.769Z" fill="#ff3636"/>
      <path id="Path_10256" data-name="Path 10256" d="M15.783,11.7V22.4H7.217V11.7a1.492,1.492,0,0,1,1.491-1.491h5.584A1.493,1.493,0,0,1,15.783,11.7Z" fill="#ffd561"/>
      <path id="Path_10257" data-name="Path 10257" d="M15.783,11.7V22.4H11.5V10.213h2.792A1.493,1.493,0,0,1,15.783,11.7Z" fill="#ffb64c"/>
      <path id="Path_10258" data-name="Path 10258" d="M12.309,13.771v2.72a.675.675,0,0,1-.675.675.667.667,0,0,1-.135-.013.675.675,0,0,1-.54-.661V15.12l-.006,0a.674.674,0,1,1-.81-1.079l1.086-.814.013-.009.032-.022.025-.015.032-.017.027-.013.032-.013.031-.011.031-.009.033-.009.014,0,.016,0,.036-.005.029,0,.039,0h.029l.036,0,.032,0,.031,0,.035.006.028.008.035.01.028.01.032.013.029.014.028.015L12,13.2l.024.016.03.023.022.018.027.024.023.022.022.024.023.028.009.011.009.013.022.032.015.025c.006.01.012.021.018.032l.013.028c0,.01.009.021.013.031l.011.031c0,.01.006.021.009.031s.006.023.009.034,0,.02.006.03,0,.024.005.036,0,.019,0,.029,0,.026,0,.038S12.309,13.765,12.309,13.771Z" fill="#ff712f"/>
      <path id="Path_10259" data-name="Path 10259" d="M15.069,4.145,13.853,5.331,14.14,7A.782.782,0,0,1,13,7.831L11.5,7.04,10,7.831A.783.783,0,0,1,8.86,7l.287-1.674L7.93,4.145a.784.784,0,0,1,.434-1.336l1.681-.244L10.8,1.041a.783.783,0,0,1,1.4,0l.752,1.523,1.681.244a.783.783,0,0,1,.434,1.336Z" fill="#ffd561"/>
      <path id="Path_10260" data-name="Path 10260" d="M13,7.831,11.5,7.04V.6a.78.78,0,0,1,.7.437l.752,1.523,1.681.244a.783.783,0,0,1,.434,1.336L13.853,5.331,14.14,7A.782.782,0,0,1,13,7.831Z" fill="#ffb64c"/>
      <path id="Path_10261" data-name="Path 10261" d="M12.309,13.771v2.72a.675.675,0,0,1-.675.675.667.667,0,0,1-.135-.013V13.11l.016,0,.036-.005.029,0,.039,0h.029l.036,0,.032,0,.031,0,.035.006.028.008.035.01.028.01.032.013.029.014.028.015L12,13.2l.024.016.03.023.022.018.027.024.023.022.022.024.023.028.009.011.009.013.022.032.015.025c.006.01.012.021.018.032l.013.028c0,.01.009.021.013.031l.011.031c0,.01.006.021.009.031s.006.023.009.034,0,.02.006.03,0,.024.005.036,0,.019,0,.029,0,.026,0,.038S12.309,13.765,12.309,13.771Z" fill="#ff3636"/>
    </g>
  </g>
</svg>
